<?xml version="1.0" encoding="UTF-8"?>
<svg id="Layer_1" xmlns="http://www.w3.org/2000/svg" xmlns:xlink="http://www.w3.org/1999/xlink" version="1.1" viewBox="0 0 106.487 106.487">
  <!-- Generator: Adobe Illustrator 29.6.1, SVG Export Plug-In . SVG Version: 2.1.1 Build 9)  -->
  <defs>
    <style>
      .st0 {
        fill: none;
      }

      .st1 {
        clip-path: url(#clippath-1);
      }

      .st2 {
        fill: #f4eee6;
      }

      .st3 {
        fill: #452111;
      }

      .st4 {
        clip-path: url(#clippath);
      }
    </style>
    <clipPath id="clippath">
      <rect class="st0" width="106.487" height="106.487"/>
    </clipPath>
    <clipPath id="clippath-1">
      <circle class="st0" cx="53.243" cy="53.243" r="53.243"/>
    </clipPath>
  </defs>
  <g class="st4">
    <g class="st1">
      <path class="st2" d="M0,0h106.487v106.487H0V0Z"/>
    </g>
  </g>
  <path class="st3" d="M25.256,31.485l-4.297-.709-2.19,3.462-.709-.104,5.882-9.281,1.064.188,2.586,10.679-1.377-.229-.959-4.005ZM25.11,30.838l-1.168-4.755-2.607,4.13,3.775.626Z"/>
  <path class="st3" d="M29.023,35.955l1.689-10.178,1.168.188-.751,4.589c.276-.318.615-.548,1.022-.688.417-.151.86-.188,1.335-.104.469.073.881.229,1.231.48.36.25.647.553.855.897.219.349.365.751.438,1.21.083.448.083.913,0,1.397-.083.501-.24.954-.459,1.356-.209.391-.475.709-.793.959-.323.261-.688.448-1.105.563-.407.11-.845.13-1.314.063-.475-.083-.886-.266-1.231-.542-.334-.266-.584-.589-.751-.98l-.167.98-1.168-.188ZM32.86,30.261c-.266-.052-.553-.047-.855.021-.308.057-.615.203-.918.438l-.709,4.276c.209.308.443.542.709.709.276.151.548.256.813.313.36.052.694.031,1.001-.063.318-.099.605-.256.855-.48.25-.219.448-.501.605-.834.167-.334.282-.709.355-1.126.068-.402.083-.782.042-1.147-.042-.375-.146-.699-.313-.98-.167-.292-.386-.532-.647-.73-.266-.209-.579-.339-.939-.396Z"/>
  <path class="st3" d="M36.269,37.165"/>
  <path class="st3" d="M43.336,29.041l-2.211.501.083-.48,3.483-.813-1.669,10.032-1.189-.188,1.502-9.052Z"/>
  <path class="st3" d="M46.259,38.991c-.24-.031-.428-.146-.563-.355-.125-.193-.167-.407-.125-.647.026-.209.13-.381.313-.521.193-.136.407-.193.647-.167.25.042.438.162.563.355.125.198.172.396.146.605-.042.24-.156.422-.334.563-.183.151-.396.209-.647.167Z"/>
  <path class="st3" d="M49.994,32.363c.083-.485.24-.907.48-1.272.25-.36.548-.657.897-.897.36-.25.756-.417,1.189-.501.443-.083.886-.083,1.335,0,.542.083,1.006.261,1.397.521.402.25.72.574.959.959.25.375.417.803.501,1.272.094.475.104.97.021,1.481-.125.725-.412,1.408-.855,2.044-.433.641-.996,1.22-1.689,1.731-.699.516-1.512.954-2.44,1.314-.933.344-1.94.61-3.024.793l-.063-.396c.819-.167,1.575-.386,2.273-.667.694-.292,1.304-.626,1.835-1.001.542-.386,1.001-.819,1.377-1.293.375-.469.673-.98.897-1.523-.349.349-.761.6-1.231.751-.459.141-.933.167-1.418.083-.375-.052-.73-.172-1.064-.355-.323-.193-.6-.438-.834-.73-.24-.292-.407-.631-.501-1.022-.099-.386-.115-.819-.042-1.293ZM55.417,33.739c.068-.469.089-.918.063-1.335-.031-.417-.12-.782-.271-1.105-.141-.318-.329-.584-.563-.793-.24-.209-.532-.339-.876-.396-.6-.094-1.121.052-1.564.438-.433.391-.709.97-.834,1.731-.141.808-.052,1.476.271,2.002.318.532.798.85,1.439.959.344.057.699.052,1.064-.021.36-.068.688-.209.98-.417.136-.375.235-.73.292-1.064Z"/>
  <path class="st3" d="M58.25,40.991c-.24-.031-.428-.146-.563-.355-.125-.193-.167-.407-.125-.647.026-.209.13-.381.313-.521.193-.136.407-.193.647-.167.25.042.438.162.563.355.125.198.172.396.146.605-.042.24-.156.422-.334.563-.183.151-.396.209-.647.167Z"/>
  <path class="st3" d="M60.317,41.121c1.027-.694,1.929-1.34,2.711-1.94.777-.594,1.444-1.152,2.002-1.669.553-.527.986-1.027,1.293-1.502.318-.469.521-.944.605-1.418.109-.636.01-1.147-.292-1.523-.292-.386-.72-.631-1.272-.73-.282-.042-.558-.031-.834.021-.282.057-.532.162-.751.313-.224.156-.428.37-.605.647-.167.266-.302.605-.396,1.022l-.396-.063c.177-1.001.584-1.71,1.21-2.127.626-.428,1.397-.568,2.315-.417.469.083.86.219,1.168.396.318.167.574.375.772.626.193.25.313.532.355.834.052.292.052.6,0,.918-.073.448-.24.871-.501,1.272-.266.391-.615.782-1.043,1.168-.417.391-.913.782-1.481,1.168-.558.391-1.178.808-1.856,1.251l-1.46.959,5.715.939-.584,1.022-6.674-1.105v-.063Z"/>
  <path class="st3" d="M69.73,37.616c.11-.667.297-1.293.563-1.877.276-.594.61-1.105,1.001-1.523.402-.417.855-.72,1.356-.918.511-.209,1.053-.261,1.627-.167.584.099,1.085.329,1.502.688.417.349.74.787.98,1.314.25.532.402,1.121.459,1.773.068.641.047,1.293-.063,1.961-.115.683-.308,1.314-.584,1.898-.266.584-.6,1.085-1.001,1.502-.391.417-.845.73-1.356.939-.516.219-1.064.282-1.648.188-.574-.099-1.064-.334-1.481-.709-.407-.36-.73-.803-.98-1.335-.24-.527-.391-1.111-.459-1.752-.057-.636-.031-1.298.083-1.981ZM71.085,37.845c-.125.725-.188,1.377-.188,1.961,0,.574.063,1.085.188,1.543.136.448.334.808.584,1.085.25.261.568.428.959.501.402.068.772.01,1.105-.167.334-.167.631-.443.897-.834.276-.386.506-.855.688-1.397.193-.542.355-1.173.48-1.898.109-.694.167-1.34.167-1.94,0-.61-.073-1.132-.209-1.564-.125-.443-.313-.803-.563-1.085-.25-.276-.579-.448-.98-.521-.391-.068-.751-.01-1.085.167-.334.183-.641.459-.918.834-.266.375-.495.85-.688,1.418-.183.574-.329,1.205-.438,1.898Z"/>
  <path class="st3" d="M77.442,43.978c1.027-.694,1.929-1.34,2.711-1.94.777-.594,1.444-1.152,2.002-1.669.553-.527.986-1.027,1.293-1.502.318-.469.521-.944.605-1.418.109-.636.01-1.147-.292-1.523-.292-.386-.72-.631-1.272-.73-.282-.042-.558-.031-.834.021-.282.057-.532.162-.751.313-.224.156-.428.37-.605.647-.167.266-.302.605-.396,1.022l-.396-.063c.177-1.001.584-1.71,1.21-2.127.626-.428,1.397-.568,2.315-.417.469.083.86.219,1.168.396.318.167.574.375.772.626.193.25.313.532.355.834.052.292.052.6,0,.918-.073.448-.24.871-.501,1.272-.266.391-.615.782-1.043,1.168-.417.391-.913.782-1.481,1.168-.558.391-1.178.808-1.856,1.251l-1.46.959,5.715.939-.584,1.022-6.674-1.105v-.063Z"/>
  <path class="st3" d="M88.085,45.979c-.391-.073-.73-.177-1.022-.313-.282-.125-.516-.271-.709-.438-.198-.167-.334-.339-.417-.521-.083-.193-.115-.375-.083-.542.042-.261.136-.428.292-.501.151-.068.313-.089.48-.063.11.016.198.057.271.125.083.057.151.136.209.229.052.083.094.183.125.292.042.115.089.224.146.334.083.209.219.412.417.605.209.177.511.297.918.355.318.052.636.052.959,0,.318-.042.605-.146.855-.313.261-.167.485-.381.667-.647.177-.276.297-.589.355-.939.068-.344.047-.688-.063-1.022-.115-.344-.329-.678-.647-1.001-.308-.318-.725-.626-1.251-.918-.516-.302-1.168-.574-1.961-.813l1.794-4.025,4.568.772-.501,1.022-4.109-.667-.834,1.815c.793.25,1.45.542,1.981.876.542.323.965.678,1.272,1.064.318.375.532.782.647,1.21.125.433.146.876.063,1.335-.073.448-.24.855-.501,1.231-.266.365-.594.667-.98.918-.391.25-.845.422-1.356.521-.501.11-1.032.115-1.585.021Z"/>
  <path class="st3" d="M20.203,50.311c-.308-.042-.584-.125-.834-.25-.24-.125-.448-.287-.626-.48-.167-.193-.287-.402-.355-.626-.057-.219-.057-.464,0-.73.068-.428.256-.756.563-.98.302-.219.678-.381,1.126-.48.459-.11.944-.167,1.46-.167.511,0,1.022.016,1.523.042l.083-.459c.109-.709.073-1.241-.104-1.606-.167-.375-.501-.605-1.001-.688-.292-.042-.542-.042-.751,0-.198.042-.355.125-.48.25-.073.073-.125.156-.167.25-.031.099-.052.188-.063.271-.016.083-.021.177-.021.271,0,.083-.01.156-.021.209-.031.183-.104.323-.229.417-.115.083-.261.115-.438.083-.183-.026-.323-.104-.417-.229-.099-.136-.125-.302-.083-.501.026-.219.125-.428.292-.626.167-.193.375-.355.626-.48.25-.136.532-.229.855-.271.334-.052.678-.052,1.043,0,.386.073.73.177,1.022.313.302.125.548.308.73.542.177.224.297.501.355.834.052.334.042.74-.042,1.21l-.501,3.003c-.057.318-.057.548,0,.688.052.136.167.219.334.25.136.01.271-.01.396-.063.136-.057.282-.167.438-.334l.188.146c-.224.334-.475.548-.751.647-.282.094-.558.125-.834.083-.308-.057-.553-.209-.73-.459-.183-.24-.24-.584-.167-1.043l.063-.375c-.24.574-.574.959-1.001,1.168-.417.209-.913.261-1.481.167ZM20.829,49.831c.193.026.386.026.584,0,.209-.031.402-.104.584-.229.177-.125.339-.302.48-.542.151-.235.261-.527.334-.876l.188-1.231c-.448-.01-.855-.005-1.231.021-.375.031-.709.083-1.001.167s-.537.219-.73.396c-.183.183-.302.417-.355.709-.031.198-.031.375,0,.542.042.167.104.329.188.48.094.141.219.261.375.355.167.094.36.167.584.209Z"/>
  <path class="st3" d="M32.798,45.49l-1.085,6.57-1.189-.188.313-1.898c-.115.365-.261.662-.438.897-.183.235-.391.417-.626.542-.224.125-.469.209-.73.25-.25.042-.516.042-.793,0-.334-.057-.626-.162-.876-.313-.25-.141-.454-.329-.605-.563-.156-.235-.261-.527-.313-.876-.057-.36-.042-.777.042-1.251l.667-4.109,1.189.209-.647,3.9c-.057.375-.078.709-.063,1.001.026.292.094.537.209.73.11.183.256.329.438.438.193.099.402.156.626.188.219.042.443.042.667,0,.219-.042.422-.13.605-.271.177-.136.339-.339.48-.605.136-.261.24-.584.313-.959l.626-3.879,1.189.188Z"/>
  <path class="st3" d="M36.964,53.114c-.501-.083-.949-.25-1.335-.501-.375-.25-.688-.548-.939-.897-.25-.344-.417-.74-.501-1.189-.083-.443-.083-.918,0-1.418.094-.542.271-1.006.521-1.397.25-.402.553-.73.918-.98.375-.25.777-.417,1.21-.501.443-.094.897-.104,1.356-.021.402.073.756.183,1.064.334.302.141.553.308.751.501.193.183.334.37.417.563.094.183.13.355.104.521-.031.198-.104.344-.229.438-.125.099-.266.136-.417.104-.209-.026-.365-.11-.459-.25-.083-.136-.146-.313-.188-.521,0-.136-.021-.276-.063-.417-.031-.136-.094-.261-.188-.375-.083-.125-.209-.229-.375-.313-.156-.094-.365-.167-.626-.209-.282-.052-.558-.047-.834.021-.282.073-.532.198-.751.375-.224.183-.417.428-.584.73-.167.308-.287.678-.355,1.105-.073.475-.078.918-.021,1.335.068.417.188.787.355,1.105.177.308.417.558.709.751.292.198.631.323,1.022.396.25.042.49.047.73.021.25-.016.49-.078.73-.188.25-.11.469-.271.667-.48.209-.219.381-.501.521-.834l.355.063c-.349.876-.824,1.481-1.418,1.815-.6.344-1.314.448-2.148.313Z"/>
  <path class="st3" d="M41.801,53.751l1.689-10.178,1.168.188-.897,5.465c.125-.344.276-.631.459-.855.193-.235.407-.417.647-.542.235-.125.48-.209.73-.25.261-.042.542-.042.834,0,.318.057.605.156.855.292.261.141.469.334.626.584.167.25.271.553.313.897.052.349.042.761-.042,1.231l-.688,4.13-1.168-.209.647-3.9c.068-.386.083-.72.042-1.001-.031-.292-.099-.527-.209-.709-.115-.193-.266-.344-.459-.459-.183-.11-.391-.188-.626-.229-.224-.026-.448-.01-.667.042-.224.042-.433.136-.626.271-.198.141-.365.334-.501.584-.141.25-.245.574-.313.959l-.647,3.879-1.168-.188Z"/>
  <path class="st3" d="M48.695,54.901"/>
  <path class="st3" d="M54.135,49.051l1.168.209-1.085,6.57-1.168-.209,1.085-6.57ZM54.385,46.235c.042-.219.151-.396.334-.521.193-.125.396-.172.605-.146.219.042.396.156.521.334.136.167.188.365.146.584-.042.224-.156.407-.334.542-.183.141-.386.188-.605.146-.209-.026-.386-.13-.521-.313-.141-.193-.188-.402-.146-.626Z"/>
  <path class="st3" d="M56.64,56.227l1.085-6.57,1.168.188-.292,1.856c.125-.344.276-.631.459-.855.193-.235.407-.417.647-.542.235-.125.48-.209.73-.25.261-.042.542-.042.834,0,.318.057.605.156.855.292.261.141.469.334.626.584.167.25.271.553.313.897.052.349.042.761-.042,1.231l-.688,4.13-1.168-.209.647-3.9c.068-.386.083-.72.042-1.001-.031-.292-.099-.527-.209-.709-.115-.193-.266-.344-.459-.459-.183-.11-.391-.188-.626-.229-.224-.026-.448-.01-.667.042-.224.042-.433.136-.626.271-.198.141-.365.334-.501.584-.141.25-.245.574-.313.959l-.647,3.879-1.168-.188Z"/>
  <path class="st3" d="M63.534,57.377"/>
  <path class="st3" d="M70.475,58.701c-.459-.073-.871-.229-1.231-.48-.349-.25-.641-.542-.876-.876-.224-.344-.375-.74-.459-1.189-.073-.459-.063-.939.021-1.439.083-.485.229-.923.438-1.314.219-.402.501-.735.834-1.001.334-.261.699-.448,1.105-.563.417-.109.855-.13,1.314-.063.485.083.886.266,1.21.542.334.266.584.594.751.98l.751-4.589,1.168.209-1.689,10.178-1.168-.209.167-.98c-.282.318-.621.548-1.022.688-.391.151-.829.188-1.314.104ZM69.224,54.947c-.073.417-.083.808-.042,1.168.052.365.156.688.313.98.167.292.381.537.647.73.261.193.568.318.918.375.292.052.589.047.897-.021.302-.057.594-.203.876-.438l.709-4.276c-.183-.302-.412-.532-.688-.688-.266-.167-.542-.276-.834-.334-.349-.052-.683-.026-1.001.083-.308.099-.584.261-.834.48-.24.209-.438.49-.605.834-.167.334-.287.704-.355,1.105Z"/>
  <path class="st3" d="M79.078,60.14c-.501-.083-.949-.25-1.335-.501-.375-.25-.688-.548-.939-.897-.25-.344-.417-.74-.501-1.189-.083-.443-.083-.918,0-1.418.094-.542.271-1.006.521-1.397.261-.402.574-.73.939-.98.36-.25.74-.422,1.147-.521.417-.094.824-.109,1.231-.042.834.141,1.491.501,1.981,1.085.501.574.74,1.33.73,2.273l-5.235-.876-.042.167c-.073.475-.078.918-.021,1.335.068.417.188.787.355,1.105.177.308.417.558.709.751.302.198.652.323,1.043.396.25.042.501.052.751.042.25,0,.49-.057.73-.167.25-.094.469-.25.667-.459.209-.209.381-.48.521-.813l.375.063c-.334.824-.808,1.397-1.418,1.731-.615.344-1.351.448-2.211.313ZM80.058,53.591c-.24-.042-.475-.031-.709.021-.24.042-.459.136-.667.271-.209.141-.396.323-.563.542-.156.224-.287.495-.396.813l3.859.647c.026-.36.005-.673-.063-.939-.057-.261-.156-.485-.292-.667-.125-.193-.292-.344-.501-.459-.198-.109-.417-.188-.667-.229Z"/>
  <path class="st3" d="M85.195,54.24l1.168.188-.313,2.002c.136-.386.313-.699.521-.939.209-.235.428-.417.667-.542.235-.136.485-.219.751-.25.261-.026.542-.01.834.042l.104.021-.167,1.105-.438-.083c-.782-.125-1.351-.068-1.71.167-.365.24-.584.6-.667,1.085l-.667,3.963-1.168-.188,1.085-6.57Z"/>
  <path class="st3" d="M18.276,65.659c-.725-.125-1.387-.37-1.981-.73-.6-.365-1.1-.798-1.502-1.314-.407-.527-.688-1.126-.855-1.794-.167-.678-.188-1.408-.063-2.19.125-.761.375-1.439.751-2.023.386-.584.855-1.064,1.397-1.439.553-.375,1.173-.626,1.856-.751.678-.136,1.382-.146,2.107-.021.709.125,1.361.365,1.961.709.61.334,1.111.767,1.502,1.293.402.532.694,1.137.876,1.815.177.683.209,1.408.083,2.169-.125.782-.391,1.46-.793,2.044-.391.574-.855,1.038-1.397,1.397-.542.375-1.163.636-1.856.793-.683.151-1.377.167-2.086.042ZM18.464,64.908c.469.068.944.068,1.418,0,.485-.073.928-.245,1.335-.521.417-.276.772-.652,1.064-1.126.302-.485.521-1.095.647-1.835.125-.761.13-1.45.021-2.065-.099-.626-.292-1.158-.584-1.606-.282-.459-.641-.819-1.085-1.085-.448-.276-.933-.459-1.46-.542-.49-.083-.98-.083-1.481,0-.49.073-.933.24-1.335.501-.407.266-.761.641-1.064,1.126-.292.49-.501,1.095-.626,1.815-.125.793-.136,1.502-.021,2.127.11.615.302,1.147.584,1.606.276.448.636.803,1.085,1.064.459.261.959.443,1.502.542Z"/>
  <path class="st3" d="M27.4,67.185c-.334-.057-.678-.156-1.022-.292-.334-.125-.636-.287-.897-.48l.125-2.211.542.083.167.98c.083.459.24.782.48.959.235.167.532.282.897.334.177.026.36.031.542.021.193,0,.365-.031.521-.083.151-.052.282-.136.396-.25.11-.125.188-.297.229-.521.042-.334-.042-.605-.25-.813-.209-.219-.516-.422-.918-.605l-.626-.25c-.516-.209-.913-.49-1.189-.855-.266-.375-.349-.834-.25-1.377.042-.292.146-.542.313-.751.177-.219.396-.396.647-.521.261-.125.548-.209.855-.25.318-.042.657-.031,1.022.021.276.057.563.146.855.271.302.125.568.266.793.417l-.021,2.002-.542-.104-.271-.959c-.115-.334-.261-.568-.438-.709-.167-.151-.407-.25-.709-.292-.349-.068-.667-.042-.959.083-.282.115-.448.329-.501.647-.042.292.005.558.146.793.151.224.428.417.834.584l.605.229c.626.25,1.074.574,1.356.959.292.375.396.824.313,1.335-.057.323-.177.594-.355.813-.183.219-.407.402-.667.542-.266.151-.574.24-.918.271-.349.042-.72.031-1.105-.021Z"/>
  <path class="st3" d="M34.215,68.319c-.25-.042-.475-.104-.667-.188-.198-.083-.349-.203-.459-.355-.115-.141-.188-.313-.229-.521-.031-.209-.021-.469.021-.793l.751-4.401-1.46-.229.104-.751,1.46.229.229-1.335,1.293-.48-.355,2.023,2.169.355-.104.751-2.169-.355-.709,4.234c-.073.407-.021.688.146.855s.407.276.73.334c.151.026.313.042.48.042.167.01.323.005.48-.021l-.104.626c-.25.01-.511.021-.772.021-.266.01-.542,0-.834-.042Z"/>
  <path class="st3" d="M39.483,69.201c-.334-.057-.678-.156-1.022-.292-.334-.125-.636-.287-.897-.48l.125-2.211.542.083.167.98c.083.459.24.782.48.959.235.167.532.282.897.334.177.026.36.031.542.021.193,0,.365-.031.521-.083.151-.052.282-.136.396-.25.11-.125.188-.297.229-.521.042-.334-.042-.605-.25-.813-.209-.219-.516-.422-.918-.605l-.626-.25c-.516-.209-.913-.49-1.189-.855-.266-.375-.349-.834-.25-1.377.042-.292.146-.542.313-.751.177-.219.396-.396.647-.521.261-.125.548-.209.855-.25.318-.042.657-.031,1.022.021.276.057.563.146.855.271.302.125.568.266.793.417l-.021,2.002-.542-.104-.271-.959c-.115-.334-.261-.568-.438-.709-.167-.151-.407-.25-.709-.292-.349-.068-.667-.042-.959.083-.282.115-.448.329-.501.647-.042.292.005.558.146.793.151.224.428.417.834.584l.605.229c.626.25,1.074.574,1.356.959.292.375.396.824.313,1.335-.057.323-.177.594-.355.813-.183.219-.407.402-.667.542-.266.151-.574.24-.918.271-.349.042-.72.031-1.105-.021Z"/>
  <path class="st3" d="M45.547,66.351c-.073.417-.078.813-.021,1.189.052.365.167.699.334,1.001.177.292.407.542.688.751.292.198.631.323,1.022.375.219.042.438.052.647.042.219-.016.428-.073.626-.167.209-.094.402-.235.584-.417.177-.177.334-.407.459-.688l.626.104c-.308.793-.751,1.34-1.335,1.648-.584.318-1.288.407-2.107.271-.501-.083-.949-.25-1.335-.501-.391-.25-.709-.548-.959-.897-.24-.344-.396-.74-.48-1.189-.083-.443-.083-.918,0-1.418.083-.511.24-.959.48-1.335.25-.386.563-.714.939-.98.375-.261.782-.443,1.231-.542.443-.094.902-.109,1.377-.042.402.073.751.188,1.043.355.302.167.563.349.772.542.209.198.355.407.438.626.094.224.13.412.104.563-.031.198-.115.344-.25.438-.141.099-.292.136-.459.104-.224-.026-.37-.104-.438-.229-.057-.136-.115-.323-.167-.563-.031-.261-.136-.506-.313-.73-.167-.235-.49-.396-.959-.48-.282-.042-.563-.026-.855.042-.282.057-.537.177-.772.355-.224.183-.417.428-.584.73-.156.292-.266.641-.334,1.043Z"/>
  <path class="st3" d="M53.1,71.31l-1.168-.209,1.689-10.178,1.168.209-.813,4.901c.261-.443.61-.761,1.043-.959.428-.193.928-.24,1.502-.146.344.057.647.162.897.313.261.141.469.334.626.584.167.24.271.532.313.876.052.349.042.761-.042,1.231l-.688,4.13-1.168-.209.647-3.9c.068-.386.083-.72.042-1.001-.042-.292-.12-.527-.229-.709-.115-.193-.261-.344-.438-.459-.183-.11-.396-.188-.647-.229-.209-.026-.428-.005-.647.063-.224.057-.433.162-.626.313-.198.141-.37.349-.521.626-.141.282-.245.605-.313.98l-.626,3.775Z"/>
  <path class="st3" d="M62.294,71.025l2.899-4.463.605.104,1.377,5.152,2.482-4.505.876.146-3.441,6.174-.647-.104-1.397-5.319-2.962,4.589-.667-.104-1.272-6.966,1.251.209.897,5.089Z"/>
  <path class="st3" d="M73.809,74.921c-.501-.083-.949-.25-1.335-.501-.391-.25-.709-.548-.959-.897-.24-.344-.396-.74-.48-1.189-.083-.443-.083-.918,0-1.418.094-.542.271-1.006.521-1.397.25-.402.553-.73.918-.98.36-.25.751-.417,1.168-.501.428-.094.84-.109,1.231-.042.417.073.798.209,1.147.417.344.198.636.459.876.793.235.323.407.709.521,1.168.125.448.167.949.125,1.502l-5.298-.876c-.031.417-.01.808.063,1.168.068.365.193.683.375.959.193.266.422.49.688.667.261.167.574.282.939.334.469.083.923.042,1.356-.125.428-.167.793-.532,1.085-1.105l.647.125c-.334.782-.808,1.319-1.418,1.627-.615.318-1.335.407-2.169.271ZM74.706,68.664c-.25-.042-.501-.042-.751,0-.24.042-.469.136-.688.271-.209.125-.391.308-.542.542-.156.224-.271.511-.355.855l3.963.667c.042-.375.021-.699-.063-.98-.083-.276-.203-.511-.355-.709-.156-.193-.344-.339-.563-.438-.209-.094-.428-.167-.647-.209Z"/>
  <path class="st3" d="M80.09,69.045l1.168.209-1.085,6.57-1.168-.209,1.085-6.57ZM80.361,66.229c.042-.219.151-.396.334-.521.177-.125.381-.172.605-.146.219.042.396.156.521.334.136.183.188.386.146.605-.042.224-.156.407-.334.542-.183.125-.386.167-.605.125-.224-.026-.407-.13-.542-.313-.125-.193-.167-.402-.125-.626Z"/>
  <path class="st3" d="M81.996,75.641l5.173-4.693-3.942-.667.104-.688,5.465.918-.063.459-5.193,4.714,4.255.73-.104.667-5.777-.98.083-.459Z"/>
</svg>